<svg xmlns="http://www.w3.org/2000/svg"><symbol viewBox="0 0 16 24" id="chevron-left"><title>chevron-left</title><path d="M0 12l12 12 4-4-8-8 8-8-4-4L0 12z"/></symbol><symbol viewBox="0 0 16 24" id="chevron-right"><title>chevron-right</title><path d="M16 12L4 0 0 4l8 8-8 8 4 4 12-12z"/></symbol><symbol viewBox="0 0 24 24" id="close"><title>close</title><path d="M24 4l-4-4-8 8-8-8-4 4 8 8-8 8 4 4 8-8 8 8 4-4-8-8z"/></symbol><symbol viewBox="0 0 64 64" id="facebook"><title>facebook</title><g id="facebook-facebook_3_"><g id="facebook-facebook"><g id="facebook-XMLID_27_"><path id="facebook-XMLID_28_" d="M59 0H4.9C2.2 0 0 2.2 0 4.9v54.4C0 62 2.2 64 4.9 64H59c2.7 0 4.9-2 4.9-4.7V4.9C64 2.2 61.8 0 59 0zM33.6 21.2c-1.6-.9-2.8-1.6-4.4-1.6-1.5 0-2.8.4-3.5 1-.7.6-1 1.9-1 3.7V27h8.1L31 34.5h-6.4v24.9H14.5V34.5H9.7V27h4.8v-2.9c0-3 .4-4.8 1.1-6.3.7-1.5 2.1-3.1 4-4.1s4.7-1.4 7.7-1.4 5.3 1 8.2 1.8l-1.9 7.1z"/></g></g></g></symbol><symbol viewBox="0 0 64 64" id="instagram"><title>instagram</title><g id="instagram-instagram_1_"><path d="M56 0H8C3.6 0 0 3.6 0 8v48c0 4.4 3.6 8 8 8h48c4.4 0 8-3.6 8-8V8c0-4.4-3.6-8-8-8zM19.7 30.7c0-.1 0-.2.1-.4 0-.3.1-.6.2-.9 0-.1.1-.3.1-.4.1-.3.1-.6.2-.8 0-.1.1-.3.1-.4.1-.3.2-.5.3-.8 0 0 0-.1.1-.1 2-4.2 6.3-7.2 11.2-7.2 5 0 9.3 3 11.2 7.2 0 0 0 .1.1.1.1.3.2.5.3.8 0 .1.1.3.1.4.1.3.2.6.2.8 0 .1.1.3.1.4.1.3.1.6.2.9 0 .1 0 .2.1.4 0 .4.1.9.1 1.3 0 6.8-5.6 12.4-12.4 12.4-6.8 0-12.4-5.6-12.4-12.4 0-.4 0-.9.1-1.3zm37.1 22.9c0 1.8-1.4 3.2-3.2 3.2H10.4c-1.8 0-3.2-1.4-3.2-3.2V26.8h5.9c-.5 1.7-.7 3.4-.7 5.2 0 10.8 8.8 19.6 19.6 19.6S51.6 42.8 51.6 32c0-1.8-.2-3.5-.7-5.2h5.9v26.8zm0-36.8c0 1.8-1.4 3.2-3.2 3.2h-6.4c-1.8 0-3.2-1.4-3.2-3.2v-6.4c0-1.8 1.4-3.2 3.2-3.2h6.4c1.8 0 3.2 1.4 3.2 3.2v6.4z" id="instagram-instagram"/></g></symbol><symbol viewBox="0 0 361.197 154.56" id="logo"><title>logo</title><path d="M479.04 431.521c2.94-7.141 5.6-15.54 5.6-21.561 0-5.18-1.82-8.68-7.28-8.68-6.72 0-17.64 7.7-31.08 28.56l6.58-15.68c3.08-7.42 6.3-16.1 6.3-22.26 0-4.76-1.82-8.12-7.14-8.12-6.58 0-17.78 7.561-31.22 27.86l3.22-7.42c3.22-7.42 6.3-16.1 6.3-22.261 0-4.9-1.82-8.119-7.14-8.119-8.54 0-26.18 9.939-43.82 28.14l1.4 8.54c25.2-34.16 41.3-34.16 41.3-34.16 1.4 0 1.96.98 1.96 2.8 0 4.9-4.48 15.4-8.68 25.061L383.98 478h8.54l20.72-48.58c23.24-43.26 37.66-43.26 37.66-43.26 1.4 0 1.96 1.12 1.96 2.94 0 4.9-4.62 15.4-8.68 25.06L417.44 478h8.82l13.16-31.64c23.1-42.56 37.38-42.7 37.38-42.7 1.4 0 2.1 1.12 2.1 2.94 0 4.9-4.34 15.4-8.54 24.92l-11.9 27.859c-3.5 8.26-7.84 17.92-7.84 24.92 0 4.34 1.96 8.54 7.98 8.54 3.08 0 7.28-.84 14.14-8.96l-2.1-1.82c-5.6 6.44-9.1 7.7-10.22 7.7-1.82 0-2.52-1.26-2.52-3.08 0-4.34 3.92-13.3 9.66-27.3zM565.278 413.04c3.36 0 5.46-3.359 5.46-6.3 0-2.66-1.68-4.9-4.34-4.9a5.938 5.938 0 0 0-5.6 6.16c.002 2.521 1.82 5.04 4.48 5.04zM699.677 413.04c3.36 0 5.46-3.359 5.46-6.3 0-2.66-1.68-4.9-4.34-4.9a5.937 5.937 0 0 0-5.6 6.16c.003 2.521 1.821 5.04 4.48 5.04z" transform="translate(-379.36 -373.841)"/><path d="M738.876 451.82c-14.7 18.34-23.521 23.38-29.96 23.38-3.359 0-5.74-1.4-5.74-6.16 0-12.04 15.961-37.52 24.641-37.52 1.539 0 2.38 1.12 2.38 2.8 0 2.8-2.1 7.28-5.46 11.479 3.5 0 11.34-4.2 12.18-7.84a12.755 12.755 0 0 0 .141-2.24c0-4.9-3.641-6.859-6.86-6.859-6.888 0-23.776 8.776-31.224 22.818l-11.9 14.7c-1.96 2.521-3.92 3.78-5.181 3.78a1.158 1.158 0 0 1-1.4-1.26 9.813 9.813 0 0 1 .7-2.521l11.479-27.72a18.438 18.438 0 0 0 1.681-6.3 3.454 3.454 0 0 0-3.78-3.5c-2.8 0-5.32 2.66-7.7 5.6l-13.392 16.557-.047-.036-12.46 15.4c-1.96 2.521-4.9 5.04-6.86 5.04a1.836 1.836 0 0 1-1.959-1.96 12.611 12.611 0 0 1 .84-3.08l21.14-49.979h19.18l1.4-2.8h-19.457l5.459-12.88h-8.26l-5.319 12.88h-16.8l-1.26 2.8h16.66c-4.341 8.68-8.121 16.66-25.061 37.52l.037.031c-7.074 8.375-13.982 13.765-20.2 17.189 7-6.72 12.32-17.079 12.32-27.3 0-8.12-2.8-13.439-2.8-14.84 0-1.26 3.08-4.76 3.08-6.02 0-1.96-1.68-2.38-2.8-2.38-4.2 0-9.38 5.18-9.38 9.38a5.408 5.408 0 0 0 .84 2.8c-3.655 5.146-8.5 11.476-15.4 20.245-14.107 17.352-22.681 22.176-28.974 22.176-2.66 0-4.9-1.4-4.9-6.3a27.4 27.4 0 0 1 1.96-9.24c11.62-.14 29.12-10.92 29.12-23.1 0-4.48-2.1-7.7-6.86-7.7-7.48 0-21.5 9.562-28.246 22.845l-.033-.026a164.232 164.232 0 0 1-21.42 22.12l15.26-35.14a18.424 18.424 0 0 0 1.68-6.3 3.453 3.453 0 0 0-3.78-3.5c-2.8 0-5.32 2.66-7.7 5.6l-13.392 16.557-.048-.037-12.46 15.4c-1.96 2.521-3.92 3.78-5.18 3.78a1.158 1.158 0 0 1-1.4-1.26 9.813 9.813 0 0 1 .7-2.521c1.54-3.359 11.62-28.7 12.74-31.08a9.926 9.926 0 0 0 .84-3.64 2.281 2.281 0 0 0-2.52-2.52c-3.64 0-5.46 2.939-13.58 13.859-7.84 10.64-20.3 26.6-23.24 26.6-.84 0-1.4-1.26-1.4-2.939 0-9.1 13.44-31.92 29.96-36.82v-1.26c-20.02 1.96-40.32 27.72-40.32 41.72 0 6.44 3.36 7.84 5.6 7.84 3.36 0 6.58-2.659 10.92-7 5.04-5.04 17.92-23.939 19.6-26.039a1.8 1.8 0 0 1 1.26-.98c.28 0 .42.28.42.7 0 .7-5.74 14.56-7.84 19.319-1.96 4.341-3.08 7-3.08 9.66 0 2.521 1.96 4.2 4.76 4.2 3.5 0 6.44-1.54 10.92-7l15.12-18.62-.1-.076 11.578-14.2a1.5 1.5 0 0 1 1.26-.841.788.788 0 0 1 .7.841 1.522 1.522 0 0 1-.14.7c-1.4 3.36-33.46 74.62-33.46 74.62l10.36-2.8 13.86-31.92a169.654 169.654 0 0 0 20.9-20.235 30.454 30.454 0 0 0-1.165 8.195c0 9.24 7.28 11.34 11.62 11.34 4.48 0 13.86-.7 32.9-24.92l-.04-.028c6.662-8.5 10.925-14.049 13.76-18.172a21.677 21.677 0 0 1 2.521 10.78c0 12.04-5.881 26.46-13.44 26.46-2.659 0 .979-5.46-2.659-5.46-2.941 0-7.98 5.6-7.98 8.4 0 2.521 2.52 2.94 4.619 2.94a18.524 18.524 0 0 0 4.621-.7c10.359-2.8 22.959-10.64 34.02-24.64l-.045-.038a236.778 236.778 0 0 0 14.324-19.283L642 464.14c-1.961 4.48-2.94 6.86-2.94 9.1 0 3.22 2.94 4.76 5.74 4.76 3.5 0 7.56-2.38 11.9-7.84l14.561-17.78-.1-.076 11.577-14.2a1.5 1.5 0 0 1 1.262-.844.788.788 0 0 1 .7.841 1.513 1.513 0 0 1-.141.7l-10.92 25.34c-1.959 4.48-3.08 7.42-3.08 9.66 0 2.521 1.961 4.2 4.76 4.2 3.5 0 6.44-1.54 10.92-7l10-12.318a28.146 28.146 0 0 0-.9 7c0 11.62 10.78 12.32 12.6 12.32 4.761 0 13.721-.7 32.621-24.92zm-148.4-20.16c1.26 0 2.24.7 2.24 3.08 0 8.26-8.68 20.859-21.7 22.96 4.761-12.179 14.561-26.04 19.462-26.04zM697.238 499.123a9.152 9.152 0 0 1 6.879 3.119.9.9 0 0 1-.2 1.32l-1.68 1.84a.757.757 0 0 1-1.2-.12 5.03 5.03 0 0 0-3.68-1.6 5.1 5.1 0 1 0 3.88 8.158.869.869 0 0 1 1.16-.12l1.8 1.521a.952.952 0 0 1 .32 1.319 8.274 8.274 0 0 1-7.319 3.879 9.659 9.659 0 1 1 .04-19.316zM717.357 499.123a9.661 9.661 0 1 1-9.437 9.6 9.6 9.6 0 0 1 9.437-9.6zm0 14.758a5.009 5.009 0 0 0 4.84-5.159 4.831 4.831 0 1 0-4.84 5.159z" transform="translate(-379.36 -373.841)"/><path d="M725.36 525.96a.727.727 0 0 0 .76-.72v-1.48a.736.736 0 0 0-.76-.76h-36.6a.736.736 0 0 0-.76.76v1.48a.727.727 0 0 0 .76.72h36.6z" transform="translate(-379.36 -373.841)" fill-rule="evenodd"/><g><path d="M555.24 525.28a.76.76 0 0 1-.2-1.2l1.44-2.479a.926.926 0 0 1 1.36-.28c1.64 1.239 3.439 2.479 6.039 2.479 2.08 0 3.64-1.359 3.64-3.079 0-2.04-1.72-3.439-5.079-4.8-3.759-1.52-7.519-3.919-7.519-8.639 0-3.56 2.639-7.679 9-7.679a14.083 14.083 0 0 1 8 2.68.991.991 0 0 1 .24 1.32l-1.52 2.279a1.053 1.053 0 0 1-1.4.479c-1.72-1.079-3.359-2.2-5.559-2.2-2.28 0-3.52 1.279-3.52 2.8 0 1.879 1.48 3.159 4.719 4.479 3.879 1.561 8.359 3.88 8.359 9.039 0 4.119-3.56 7.919-9.2 7.919a12.531 12.531 0 0 1-8.8-3.118zM584.718 504.8H578.6a.759.759 0 0 1-.76-.76v-3.279a.759.759 0 0 1 .76-.76h17.477a.759.759 0 0 1 .76.76v3.279a.759.759 0 0 1-.76.76h-6.119v22.44a.787.787 0 0 1-.76.76h-3.719a.787.787 0 0 1-.76-.76V504.8zM598.16 526.96l12.44-26.915a.718.718 0 0 1 .68-.44h.4a.68.68 0 0 1 .68.44l12.318 26.915A.707.707 0 0 1 624 528h-3.479a1.151 1.151 0 0 1-1.16-.8l-1.959-4.319h-11.964l-1.96 4.319a1.206 1.206 0 0 1-1.16.8h-3.479a.706.706 0 0 1-.679-1.04zm17.277-8.519l-4-8.8h-.12l-3.919 8.8h8.038zM642.2 499.6a15.117 15.117 0 0 1 9.758 3.72.774.774 0 0 1 .04 1.12l-2.479 2.6a.684.684 0 0 1-1.04 0 9.062 9.062 0 0 0-6.038-2.32 9.222 9.222 0 0 0 .039 18.438 12.527 12.527 0 0 0 4.76-1v-3.4h-3.2a.727.727 0 0 1-.76-.72v-3.16a.735.735 0 0 1 .76-.76h7.678a.753.753 0 0 1 .721.76v10.242a.77.77 0 0 1-.32.641 20.206 20.206 0 0 1-9.918 2.6 14.378 14.378 0 0 1-.001-28.761zM660.2 500.765a.759.759 0 0 1 .76-.76h16.277a.759.759 0 0 1 .76.76v3.279a.759.759 0 0 1-.76.76H665.4v6.56h9.878a.786.786 0 0 1 .76.76v3.319a.76.76 0 0 1-.76.76H665.4v7h11.838a.759.759 0 0 1 .76.76v3.279a.76.76 0 0 1-.76.76h-16.279a.759.759 0 0 1-.76-.76v-26.477z" transform="translate(-379.36 -373.841)"/></g><g><path d="M499.64 378.411h-4.29a.57.57 0 0 1-.57-.57v-3.27a.57.57 0 0 1 .57-.57h13.319a.569.569 0 0 1 .57.57v3.27a.57.57 0 0 1-.57.57h-4.29v16.019a.59.59 0 0 1-.57.57h-3.6a.59.59 0 0 1-.57-.57v-16.019zM513.89 374.571a.59.59 0 0 1 .57-.57h3.57a.569.569 0 0 1 .57.57v7.56h8.58v-7.56a.57.57 0 0 1 .57-.57h3.57a.59.59 0 0 1 .57.57v19.859a.59.59 0 0 1-.57.57h-3.57a.57.57 0 0 1-.57-.57v-7.89h-8.58v7.89a.569.569 0 0 1-.57.57h-3.57a.59.59 0 0 1-.57-.57v-19.859zM538.13 374.571a.569.569 0 0 1 .57-.57h12.419a.569.569 0 0 1 .57.57v3.27a.57.57 0 0 1-.57.57h-8.31v3.72h6.84a.59.59 0 0 1 .57.569v3.271a.569.569 0 0 1-.57.569h-6.84v4.05h8.31a.57.57 0 0 1 .57.57v3.27a.569.569 0 0 1-.57.57H538.7a.569.569 0 0 1-.57-.57v-19.859z" transform="translate(-379.36 -373.841)"/></g></symbol><symbol viewBox="0 0 16 16" id="zoom-in"><title>zoom-in</title><path d="M16 6.1H9.9V0H6.1v6.1H0v3.8h6.1V16h3.8V9.9H16V6.1z"/></symbol><symbol viewBox="0 0 16 3.8" id="zoom-out"><title>zoom-out</title><path d="M16 0H0v3.8h16V0z"/></symbol></svg>