<?xml version="1.0" encoding="utf-8"?>
<!-- Generator: Adobe Illustrator 19.0.0, SVG Export Plug-In . SVG Version: 6.00 Build 0)  -->
<!DOCTYPE svg PUBLIC "-//W3C//DTD SVG 1.1//EN" "http://www.w3.org/Graphics/SVG/1.1/DTD/svg11.dtd">
<svg version="1.1" id="Layer_1" xmlns="http://www.w3.org/2000/svg" xmlns:xlink="http://www.w3.org/1999/xlink" x="0px" y="0px"
	 width="64px" height="64px" viewBox="0 0 64 64" enable-background="new 0 0 64 64" xml:space="preserve">
<g id="facebook_3_" enable-background="new    ">
	<g id="facebook">
		<g id="XMLID_27_">
			<path id="XMLID_28_" d="M59,0H4.9C2.2,0,0,2.2,0,4.9v54.4C0,62,2.2,64,4.9,64H59c2.7,0,4.9-2,4.9-4.7V4.9C64,2.2,61.8,0,59,0z
				 M33.6,21.2c-1.6-0.9-2.8-1.6-4.4-1.6c-1.5,0-2.8,0.4-3.5,1c-0.7,0.6-1,1.9-1,3.7V27h8.1l-1.8,7.5h-6.4v24.9H14.5V34.5H9.7V27
				h4.8v-2.9c0-3,0.4-4.8,1.1-6.3c0.7-1.5,2.1-3.1,4-4.1s4.7-1.4,7.7-1.4c3,0,5.3,1,8.2,1.8L33.6,21.2z"/>
		</g>
	</g>
</g>
<g id="XMLID_57_">
</g>
<g id="XMLID_58_">
</g>
<g id="XMLID_59_">
</g>
<g id="XMLID_60_">
</g>
<g id="XMLID_61_">
</g>
</svg>
