<?xml version="1.0" encoding="utf-8"?>
<!-- Generator: Adobe Illustrator 19.0.0, SVG Export Plug-In . SVG Version: 6.00 Build 0)  -->
<!DOCTYPE svg PUBLIC "-//W3C//DTD SVG 1.1//EN" "http://www.w3.org/Graphics/SVG/1.1/DTD/svg11.dtd">
<svg version="1.1" id="Layer_1" xmlns="http://www.w3.org/2000/svg" xmlns:xlink="http://www.w3.org/1999/xlink" x="0px" y="0px"
	 width="64px" height="64px" viewBox="0 0 64 64" enable-background="new 0 0 64 64" xml:space="preserve">
<g id="instagram_1_" enable-background="new    ">
	<g id="instagram">
		<g>
			<path d="M56,0H8C3.6,0,0,3.6,0,8v48c0,4.4,3.6,8,8,8h48c4.4,0,8-3.6,8-8V8C64,3.6,60.4,0,56,0z M19.7,30.7c0-0.1,0-0.2,0.1-0.4
				c0-0.3,0.1-0.6,0.2-0.9c0-0.1,0.1-0.3,0.1-0.4c0.1-0.3,0.1-0.6,0.2-0.8c0-0.1,0.1-0.3,0.1-0.4c0.1-0.3,0.2-0.5,0.3-0.8
				c0,0,0-0.1,0.1-0.1h0c2-4.2,6.3-7.2,11.2-7.2c5,0,9.3,3,11.2,7.2h0c0,0,0,0.1,0.1,0.1c0.1,0.3,0.2,0.5,0.3,0.8
				c0,0.1,0.1,0.3,0.1,0.4c0.1,0.3,0.2,0.6,0.2,0.8c0,0.1,0.1,0.3,0.1,0.4c0.1,0.3,0.1,0.6,0.2,0.9c0,0.1,0,0.2,0.1,0.4
				c0,0.4,0.1,0.9,0.1,1.3c0,6.8-5.6,12.4-12.4,12.4c-6.8,0-12.4-5.6-12.4-12.4C19.6,31.6,19.6,31.1,19.7,30.7z M56.8,53.6
				c0,1.8-1.4,3.2-3.2,3.2H10.4c-1.8,0-3.2-1.4-3.2-3.2V26.8h5.9c-0.5,1.7-0.7,3.4-0.7,5.2c0,10.8,8.8,19.6,19.6,19.6
				S51.6,42.8,51.6,32c0-1.8-0.2-3.5-0.7-5.2h5.9V53.6z M56.8,16.8c0,1.8-1.4,3.2-3.2,3.2h-6.4c-1.8,0-3.2-1.4-3.2-3.2v-6.4
				c0-1.8,1.4-3.2,3.2-3.2h6.4c1.8,0,3.2,1.4,3.2,3.2V16.8z"/>
		</g>
	</g>
</g>
<g id="XMLID_27_">
</g>
<g id="XMLID_28_">
</g>
<g id="XMLID_29_">
</g>
<g id="XMLID_30_">
</g>
<g id="XMLID_31_">
</g>
</svg>
